<svg xmlns="http://www.w3.org/2000/svg" version="1.1" xmlns:xlink="http://www.w3.org/1999/xlink" viewBox="0 0 200 200"><rect width="200" height="200" fill="url('#gradient')"></rect><defs><linearGradient id="gradient" gradientTransform="rotate(360 0.5 0.5)"><stop offset="0%" stop-color="#090d1a"></stop><stop offset="100%" stop-color="#41373f"></stop></linearGradient></defs><g><g fill="#fcf8f4" transform="matrix(1.7176404808498742,0,0,1.7176404808498742,9.41238212987868,112.72135413156263)" stroke="#eeebe9" stroke-width="0"><path d="M6.46-2.97L6.46-2.97Q6.46-3.39 6.02-3.64Q5.58-3.90 4.35-4.17Q3.12-4.44 2.31-4.89Q1.51-5.33 1.09-5.97Q0.67-6.60 0.67-7.42L0.67-7.42Q0.67-8.88 1.88-9.82Q3.08-10.76 5.02-10.76L5.02-10.76Q7.11-10.76 8.38-9.81Q9.65-8.87 9.65-7.32L9.65-7.32L6.35-7.32Q6.35-8.59 5.01-8.59L5.01-8.59Q4.49-8.59 4.14-8.31Q3.79-8.02 3.79-7.59L3.79-7.59Q3.79-7.15 4.22-6.88Q4.65-6.60 5.59-6.43Q6.53-6.25 7.25-6.01L7.25-6.01Q9.63-5.19 9.63-3.07L9.63-3.07Q9.63-1.62 8.34-0.71Q7.06 0.20 5.02 0.20L5.02 0.20Q3.66 0.20 2.60-0.29Q1.53-0.78 0.94-1.62Q0.34-2.46 0.34-3.39L0.34-3.39L3.42-3.39Q3.44-2.66 3.91-2.32Q4.38-1.98 5.11-1.98L5.11-1.98Q5.78-1.98 6.12-2.26Q6.46-2.53 6.46-2.97ZM17.71 0L15.41-3.94L14.48-3.01L14.48 0L11.19 0L11.19-15.01L14.48-15.01L14.48-7.04L14.81-7.48L17.29-10.57L21.24-10.57L17.54-6.22L21.48 0L17.71 0ZM27.64-2.97L27.64-2.97Q27.64-3.39 27.20-3.64Q26.76-3.90 25.53-4.17Q24.30-4.44 23.50-4.89Q22.70-5.33 22.28-5.97Q21.86-6.60 21.86-7.42L21.86-7.42Q21.86-8.88 23.06-9.82Q24.26-10.76 26.20-10.76L26.20-10.76Q28.29-10.76 29.56-9.81Q30.83-8.87 30.83-7.32L30.83-7.32L27.53-7.32Q27.53-8.59 26.19-8.59L26.19-8.59Q25.67-8.59 25.32-8.31Q24.97-8.02 24.97-7.59L24.97-7.59Q24.97-7.15 25.40-6.88Q25.83-6.60 26.77-6.43Q27.71-6.25 28.43-6.01L28.43-6.01Q30.81-5.19 30.81-3.07L30.81-3.07Q30.81-1.62 29.53-0.71Q28.24 0.20 26.20 0.20L26.20 0.20Q24.84 0.20 23.78-0.29Q22.71-0.78 22.12-1.62Q21.52-2.46 21.52-3.39L21.52-3.39L24.60-3.39Q24.62-2.66 25.09-2.32Q25.56-1.98 26.29-1.98L26.29-1.98Q26.96-1.98 27.30-2.26Q27.64-2.53 27.64-2.97ZM34.38-3.19L34.38-3.19Q35.17-3.19 35.68-2.73Q36.20-2.27 36.20-1.54Q36.20-0.82 35.68-0.36Q35.17 0.11 34.38 0.11L34.38 0.11Q33.59 0.11 33.08-0.36Q32.57-0.83 32.57-1.54Q32.57-2.26 33.08-2.72Q33.59-3.19 34.38-3.19ZM47.64 0L44.35 0Q44.17-0.32 44.03-0.95L44.03-0.95Q43.13 0.20 41.49 0.20L41.49 0.20Q40 0.20 38.96-0.71Q37.91-1.61 37.91-2.98L37.91-2.98Q37.91-4.70 39.18-5.58Q40.45-6.46 42.87-6.46L42.87-6.46L43.89-6.46L43.89-7.01Q43.89-8.47 42.63-8.47L42.63-8.47Q41.46-8.47 41.46-7.31L41.46-7.31L38.16-7.31Q38.16-8.85 39.47-9.80Q40.77-10.76 42.79-10.76Q44.81-10.76 45.99-9.78Q47.16-8.79 47.19-7.07L47.19-7.07L47.19-2.39Q47.21-0.94 47.64-0.17L47.64-0.17L47.64 0ZM42.29-2.15L42.29-2.15Q42.90-2.15 43.31-2.41Q43.71-2.68 43.89-3.01L43.89-3.01L43.89-4.70L42.93-4.70Q41.21-4.70 41.21-3.15L41.21-3.15Q41.21-2.71 41.51-2.43Q41.82-2.15 42.29-2.15ZM56.47-10.57L58.13-4.34L59.20-10.57L62.35-10.57L59.86 0L57.08 0L55.33-6.27L53.57 0L50.79 0L48.30-10.57L51.46-10.57L52.50-4.19L54.18-10.57L56.47-10.57ZM69.06-2.97L69.06-2.97Q69.06-3.39 68.62-3.64Q68.18-3.90 66.95-4.17Q65.72-4.44 64.92-4.89Q64.12-5.33 63.70-5.97Q63.28-6.60 63.28-7.42L63.28-7.42Q63.28-8.88 64.48-9.82Q65.68-10.76 67.63-10.76L67.63-10.76Q69.72-10.76 70.99-9.81Q72.26-8.87 72.26-7.32L72.26-7.32L68.96-7.32Q68.96-8.59 67.62-8.59L67.62-8.59Q67.10-8.59 66.75-8.31Q66.40-8.02 66.40-7.59L66.40-7.59Q66.40-7.15 66.83-6.88Q67.26-6.60 68.20-6.43Q69.14-6.25 69.85-6.01L69.85-6.01Q72.24-5.19 72.24-3.07L72.24-3.07Q72.24-1.62 70.95-0.71Q69.67 0.20 67.63 0.20L67.63 0.20Q66.27 0.20 65.21-0.29Q64.14-0.78 63.54-1.62Q62.95-2.46 62.95-3.39L62.95-3.39L66.03-3.39Q66.04-2.66 66.51-2.32Q66.98-1.98 67.71-1.98L67.71-1.98Q68.39-1.98 68.73-2.26Q69.06-2.53 69.06-2.97ZM73.36-5.36L73.36-5.36Q73.36-7.87 74.44-9.32Q75.53-10.76 77.47-10.76L77.47-10.76Q78.89-10.76 79.85-9.65L79.85-9.65L79.85-15L83.15-15L83.15 0L80.20 0L80.03-1.13Q79.01 0.20 77.45 0.20L77.45 0.20Q75.57 0.20 74.46-1.25Q73.36-2.70 73.36-5.36ZM76.66-5.76L76.65-5.16Q76.65-2.34 78.29-2.34L78.29-2.34Q79.38-2.34 79.85-3.26L79.85-3.26L79.85-7.29Q79.40-8.22 78.31-8.22L78.31-8.22Q76.79-8.22 76.66-5.76L76.66-5.76ZM90.14 0.20L90.14 0.20Q87.71 0.20 86.20-1.25Q84.70-2.71 84.70-5.03L84.70-5.03L84.70-5.30Q84.70-6.92 85.30-8.16Q85.90-9.40 87.05-10.08Q88.20-10.76 89.79-10.76L89.79-10.76Q92.01-10.76 93.30-9.38Q94.59-8.00 94.59-5.53L94.59-5.53L94.59-4.25L88.05-4.25Q88.22-3.36 88.82-2.85Q89.41-2.34 90.36-2.34L90.36-2.34Q91.92-2.34 92.80-3.44L92.80-3.44L94.31-1.66Q93.69-0.81 92.56-0.31Q91.44 0.20 90.14 0.20ZM89.77-8.22L89.77-8.22Q88.32-8.22 88.05-6.31L88.05-6.31L91.37-6.31L91.37-6.56Q91.39-7.35 90.97-7.79Q90.55-8.22 89.77-8.22ZM98.36-10.57L100-3.92L101.67-10.57L105.14-10.57L101.69 0L98.33 0L94.88-10.57L98.36-10.57Z"></path></g></g></svg>